{"accessors":[{"bufferView":0,"componentType":5123,"count":11151,"max":[2285],"min":[0],"type":"SCALAR"},{"bufferView":1,"componentType":5126,"count":2286,"max":[4.078120231628418,3.0130701065063477,7.061069965362549],"min":[0.8403599858283997,-1.2248198986053467,-0.14706993103027344],"type":"VEC3"},{"bufferView":2,"componentType":5126,"count":2286,"max":[0.999969482421875,0.999603271484375,0.99993896484375],"min":[-0.999969482421875,-0.999908447265625,-0.999786376953125],"type":"VEC3"},{"bufferView":3,"componentType":5126,"count":2286,"max":[0.9999802112579346,0.9999287724494934,0.9988921284675598,-1.0],"min":[-0.9997762441635132,-0.999963104724884,-0.9989962577819824,-1.0],"type":"VEC4"},{"bufferView":4,"componentType":5126,"count":2286,"max":[0.9986199736595154,0.9460800290107727],"min":[0.003719999920576811,0.0019299983978271484],"type":"VEC2"},{"bufferView":5,"componentType":5126,"count":2286,"max":[0.9986199736595154,0.9460800290107727],"min":[0.003719999920576811,0.0019299983978271484],"type":"VEC2"},{"bufferView":6,"componentType":5126,"count":2286,"max":[0.9986199736595154,0.9460800290107727],"min":[0.003719999920576811,0.0019299983978271484],"type":"VEC2"},{"bufferView":7,"componentType":5123,"count":11151,"max":[2285],"min":[0],"type":"SCALAR"},{"bufferView":8,"componentType":5126,"count":2286,"max":[-0.8403599858283997,3.0130701065063477,7.061069965362549],"min":[-4.078120231628418,-1.2248198986053467,-0.14706993103027344],"type":"VEC3"},{"bufferView":9,"componentType":5126,"count":2286,"max":[0.999969482421875,0.999603271484375,0.99993896484375],"min":[-0.999969482421875,-0.999908447265625,-0.999786376953125],"type":"VEC3"},{"bufferView":10,"componentType":5126,"count":2286,"max":[0.9997762441635132,0.9999287724494934,0.9988921284675598,1.0],"min":[-0.9999802112579346,-0.999963104724884,-0.9989962577819824,1.0],"type":"VEC4"},{"bufferView":11,"componentType":5126,"count":2286,"max":[0.9986199736595154,0.9460800290107727],"min":[0.003719999920576811,0.0019299983978271484],"type":"VEC2"},{"bufferView":12,"componentType":5126,"count":2286,"max":[0.9986199736595154,0.9460800290107727],"min":[0.003719999920576811,0.0019299983978271484],"type":"VEC2"},{"bufferView":13,"componentType":5126,"count":2286,"max":[0.9986199736595154,0.9460800290107727],"min":[0.003719999920576811,0.0019299983978271484],"type":"VEC2"},{"bufferView":14,"componentType":5123,"count":17964,"max":[3847],"min":[0],"type":"SCALAR"},{"bufferView":15,"componentType":5126,"count":3848,"max":[2.2330501079559326,4.3216400146484375,2.3242099285125732],"min":[-2.2330501079559326,-1.9742300510406494,-1.9481301307678223],"type":"VEC3"},{"bufferView":16,"componentType":5126,"count":3848,"max":[1.0,1.0,0.999969482421875],"min":[-1.0,-0.999969482421875,-1.0],"type":"VEC3"},{"bufferView":17,"componentType":5126,"count":3848,"max":[1.0,0.9930554628372192,1.0,-1.0],"min":[-1.0,-1.0,-1.0,-1.0],"type":"VEC4"},{"bufferView":18,"componentType":5126,"count":3848,"max":[0.9987900257110596,0.9978899955749512],"min":[0.0008800000068731606,0.001980006694793701],"type":"VEC2"},{"bufferView":19,"componentType":5126,"count":3848,"max":[0.9987900257110596,0.9978899955749512],"min":[0.0008800000068731606,0.001980006694793701],"type":"VEC2"},{"bufferView":20,"componentType":5126,"count":3848,"max":[0.9987900257110596,0.9978899955749512],"min":[0.0008800000068731606,0.001980006694793701],"type":"VEC2"}],"asset":{"generator":"Soft8Soft Verge3D for Blender add-on","version":"2.0"},"bufferViews":[{"buffer":0,"byteLength":22302,"byteOffset":0,"target":34963},{"buffer":0,"byteLength":27432,"byteOffset":22304,"target":34962},{"buffer":0,"byteLength":27432,"byteOffset":49736,"target":34962},{"buffer":0,"byteLength":36576,"byteOffset":77168,"target":34962},{"buffer":0,"byteLength":18288,"byteOffset":113744,"target":34962},{"buffer":0,"byteLength":18288,"byteOffset":132032,"target":34962},{"buffer":0,"byteLength":18288,"byteOffset":150320,"target":34962},{"buffer":0,"byteLength":22302,"byteOffset":168608,"target":34963},{"buffer":0,"byteLength":27432,"byteOffset":190912,"target":34962},{"buffer":0,"byteLength":27432,"byteOffset":218344,"target":34962},{"buffer":0,"byteLength":36576,"byteOffset":245776,"target":34962},{"buffer":0,"byteLength":18288,"byteOffset":282352,"target":34962},{"buffer":0,"byteLength":18288,"byteOffset":300640,"target":34962},{"buffer":0,"byteLength":18288,"byteOffset":318928,"target":34962},{"buffer":0,"byteLength":35928,"byteOffset":337216,"target":34963},{"buffer":0,"byteLength":46176,"byteOffset":373144,"target":34962},{"buffer":0,"byteLength":46176,"byteOffset":419320,"target":34962},{"buffer":0,"byteLength":61568,"byteOffset":465496,"target":34962},{"buffer":0,"byteLength":30784,"byteOffset":527064,"target":34962},{"buffer":0,"byteLength":30784,"byteOffset":557848,"target":34962},{"buffer":0,"byteLength":30784,"byteOffset":588632,"target":34962}],"buffers":[{"byteLength":619416,"uri":"TEST1.bin"}],"cameras":[{"extensions":{"S8S_v3d_camera_data":{"controls":"ORBIT","enablePan":false,"moveSpeed":1.0,"orbitMaxDistance":20.09000015258789,"orbitMaxPolarAngle":3.1415927410125732,"orbitMaxZoom":100.0,"orbitMinDistance":3.0,"orbitMinPolarAngle":0.0,"orbitMinZoom":0.009999999776482582,"orbitTarget":[0.47999998927116394,3.4800000190734863,-0.47999998927116394],"rotateSpeed":1.0,"viewportFitInitialAspect":1.7777777777777777,"viewportFitType":"AUTO"}},"name":"Camera","perspective":{"aspectRatio":1.7777777777777777,"yfov":0.4426289085209859,"zfar":100.0,"znear":0.10000000149011612},"type":"perspective"}],"extensionsUsed":["S8S_v3d_texture_data","S8S_v3d_material_data","S8S_v3d_camera_data","S8S_v3d_mesh_data","S8S_v3d_node_data","S8S_v3d_scene_data"],"images":[{"uri":"tmp20f_2_32"},{"uri":"tmplx7qht64"},{"uri":"tmphrck86uw"},{"uri":"tmphzzc_uu9"},{"uri":"tmp8683c163"},{"uri":"tmplu_nqpz_"},{"uri":"environment.hdr"}],"materials":[{"extensions":{"S8S_v3d_material_data":{"nodeGraph":{"edges":[{"fromNode":3,"fromOutput":0,"toInput":0,"toNode":1},{"fromNode":5,"fromOutput":0,"toInput":0,"toNode":4},{"fromNode":4,"fromOutput":0,"toInput":0,"toNode":3},{"fromNode":6,"fromOutput":0,"toInput":0,"toNode":7},{"fromNode":7,"fromOutput":2,"toInput":0,"toNode":8},{"fromNode":8,"fromOutput":0,"toInput":4,"toNode":1},{"fromNode":7,"fromOutput":1,"toInput":0,"toNode":9},{"fromNode":9,"fromOutput":0,"toInput":7,"toNode":1},{"fromNode":11,"fromOutput":0,"toInput":0,"toNode":10},{"fromNode":10,"fromOutput":0,"toInput":0,"toNode":6},{"fromNode":1,"fromOutput":0,"toInput":0,"toNode":0},{"fromNode":13,"fromOutput":0,"toInput":0,"toNode":12},{"fromNode":12,"fromOutput":0,"toInput":0,"toNode":14},{"fromNode":14,"fromOutput":0,"toInput":1,"toNode":15},{"fromNode":15,"fromOutput":0,"toInput":19,"toNode":1}],"nodes":[{"inputs":[[0,0,0,0],[0,0,0,0],[0.0,0.0,0.0]],"is_active_output":true,"name":"Material Output","outputs":[],"type":"OUTPUT_MATERIAL_BL"},{"inputs":[[0.800000011920929,0.800000011920929,0.800000011920929,1.0],0.0,[1.0,0.20000000298023224,0.10000000149011612],[0.800000011920929,0.800000011920929,0.800000011920929,1.0],0.0,0.5,0.0,0.5,0.0,0.0,0.0,0.5,0.0,0.029999999329447746,1.4500000476837158,0.0,0.0,[0.0,0.0,0.0,1.0],1.0,[0.0,0.0,0.0],[0.0,0.0,0.0],[0.0,0.0,0.0]],"is_active_output":false,"name":"Principled BSDF","outputs":[[0,0,0,0]],"type":"BSDF_PRINCIPLED_BL"},{"inputs":[[0.0,0.0,0.0]],"is_active_output":false,"name":"Image Texture","outputs":[[0.0,0.0,0.0,0.0],0.0],"projection":"FLAT","projectionBlend":0.0,"type":"TEX_IMAGE_NONE_BL"},{"inputs":[[0.0,0.0,0.0]],"is_active_output":false,"name":"Image Texture.001","outputs":[[0.0,0.0,0.0,0.0],0.0],"projection":"FLAT","projectionBlend":0.0,"texture":0,"type":"TEX_IMAGE_BL"},{"inputs":[[0.0,0.0,0.0],[0.0,0.0,0.0],[0.0,0.0,0.0],[1.0,1.0,1.0]],"is_active_output":false,"name":"Mapping","outputs":[[0.0,0.0,0.0]],"type":"MAPPING_BL","vectorType":"POINT"},{"inputs":[],"is_active_output":false,"name":"UV Map","outputs":[[0.0,0.0,0.0]],"type":"UVMAP_BL","uvLayer":"TEXCOORD_0"},{"inputs":[[0.0,0.0,0.0]],"is_active_output":false,"name":"Image Texture.002","outputs":[[0.0,0.0,0.0,0.0],0.0],"projection":"FLAT","projectionBlend":0.0,"texture":1,"type":"TEX_IMAGE_BL"},{"inputs":[[0.800000011920929,0.800000011920929,0.800000011920929,1.0]],"is_active_output":false,"name":"Separate RGB","outputs":[0.0,0.0,0.0],"type":"SEPRGB_BL"},{"inputs":[0.5,0.46988338232040405,0.0],"is_active_output":false,"name":"Math","operation":"MULTIPLY","outputs":[0.0],"type":"MATH_BL","useClamp":false},{"inputs":[0.5,0.29355835914611816,0.0],"is_active_output":false,"name":"Math.001","operation":"MULTIPLY","outputs":[0.0],"type":"MATH_BL","useClamp":false},{"inputs":[[0.0,0.0,0.0],[0.0,0.0,0.0],[0.0,0.0,0.0],[1.0,1.0,1.0]],"is_active_output":false,"name":"Mapping.001","outputs":[[0.0,0.0,0.0]],"type":"MAPPING_BL","vectorType":"POINT"},{"inputs":[],"is_active_output":false,"name":"UV Map.001","outputs":[[0.0,0.0,0.0]],"type":"UVMAP_BL","uvLayer":"TEXCOORD_0"},{"inputs":[[0.0,0.0,0.0],[0.0,0.0,0.0],[0.0,0.0,0.0],[1.0,1.0,1.0]],"is_active_output":false,"name":"Mapping.002","outputs":[[0.0,0.0,0.0]],"type":"MAPPING_BL","vectorType":"POINT"},{"inputs":[],"is_active_output":false,"name":"UV Map.002","outputs":[[0.0,0.0,0.0]],"type":"UVMAP_BL","uvLayer":"TEXCOORD_0"},{"inputs":[[0.0,0.0,0.0]],"is_active_output":false,"name":"Image Texture.003","outputs":[[0.0,0.0,0.0,0.0],0.0],"projection":"FLAT","projectionBlend":0.0,"texture":2,"type":"TEX_IMAGE_BL"},{"inputs":[1.0,[0.5,0.5,1.0,1.0]],"is_active_output":false,"name":"Normal Map","outputs":[[0.0,0.0,0.0]],"type":"NORMAL_MAP_BL","uvLayer":"TEXCOORD_0"}]},"useCastShadows":true}},"name":"mghead_body"},{"extensions":{"S8S_v3d_material_data":{"nodeGraph":{"edges":[{"fromNode":3,"fromOutput":0,"toInput":0,"toNode":1},{"fromNode":5,"fromOutput":0,"toInput":0,"toNode":4},{"fromNode":4,"fromOutput":0,"toInput":0,"toNode":3},{"fromNode":6,"fromOutput":0,"toInput":0,"toNode":7},{"fromNode":7,"fromOutput":2,"toInput":0,"toNode":8},{"fromNode":8,"fromOutput":0,"toInput":4,"toNode":1},{"fromNode":7,"fromOutput":1,"toInput":0,"toNode":9},{"fromNode":9,"fromOutput":0,"toInput":7,"toNode":1},{"fromNode":11,"fromOutput":0,"toInput":0,"toNode":10},{"fromNode":10,"fromOutput":0,"toInput":0,"toNode":6},{"fromNode":1,"fromOutput":0,"toInput":0,"toNode":0},{"fromNode":13,"fromOutput":0,"toInput":0,"toNode":12},{"fromNode":12,"fromOutput":0,"toInput":0,"toNode":14},{"fromNode":14,"fromOutput":0,"toInput":1,"toNode":15},{"fromNode":15,"fromOutput":0,"toInput":19,"toNode":1}],"nodes":[{"inputs":[[0,0,0,0],[0,0,0,0],[0.0,0.0,0.0]],"is_active_output":true,"name":"Material Output","outputs":[],"type":"OUTPUT_MATERIAL_BL"},{"inputs":[[0.800000011920929,0.800000011920929,0.800000011920929,1.0],0.0,[1.0,0.20000000298023224,0.10000000149011612],[0.800000011920929,0.800000011920929,0.800000011920929,1.0],0.0,0.5,0.0,0.5,0.0,0.0,0.0,0.5,0.0,0.029999999329447746,1.4500000476837158,0.0,0.0,[0.0,0.0,0.0,1.0],1.0,[0.0,0.0,0.0],[0.0,0.0,0.0],[0.0,0.0,0.0]],"is_active_output":false,"name":"Principled BSDF","outputs":[[0,0,0,0]],"type":"BSDF_PRINCIPLED_BL"},{"inputs":[[0.0,0.0,0.0]],"is_active_output":false,"name":"Image Texture","outputs":[[0.0,0.0,0.0,0.0],0.0],"projection":"FLAT","projectionBlend":0.0,"type":"TEX_IMAGE_NONE_BL"},{"inputs":[[0.0,0.0,0.0]],"is_active_output":false,"name":"Image Texture.001","outputs":[[0.0,0.0,0.0,0.0],0.0],"projection":"FLAT","projectionBlend":0.0,"texture":3,"type":"TEX_IMAGE_BL"},{"inputs":[[0.0,0.0,0.0],[0.0,0.0,0.0],[0.0,0.0,0.0],[1.0,1.0,1.0]],"is_active_output":false,"name":"Mapping","outputs":[[0.0,0.0,0.0]],"type":"MAPPING_BL","vectorType":"POINT"},{"inputs":[],"is_active_output":false,"name":"UV Map","outputs":[[0.0,0.0,0.0]],"type":"UVMAP_BL","uvLayer":"TEXCOORD_0"},{"inputs":[[0.0,0.0,0.0]],"is_active_output":false,"name":"Image Texture.002","outputs":[[0.0,0.0,0.0,0.0],0.0],"projection":"FLAT","projectionBlend":0.0,"texture":4,"type":"TEX_IMAGE_BL"},{"inputs":[[0.800000011920929,0.800000011920929,0.800000011920929,1.0]],"is_active_output":false,"name":"Separate RGB","outputs":[0.0,0.0,0.0],"type":"SEPRGB_BL"},{"inputs":[0.5,0.5550057888031006,0.0],"is_active_output":false,"name":"Math","operation":"MULTIPLY","outputs":[0.0],"type":"MATH_BL","useClamp":false},{"inputs":[0.5,0.2813980281352997,0.0],"is_active_output":false,"name":"Math.001","operation":"MULTIPLY","outputs":[0.0],"type":"MATH_BL","useClamp":false},{"inputs":[[0.0,0.0,0.0],[0.0,0.0,0.0],[0.0,0.0,0.0],[1.0,1.0,1.0]],"is_active_output":false,"name":"Mapping.001","outputs":[[0.0,0.0,0.0]],"type":"MAPPING_BL","vectorType":"POINT"},{"inputs":[],"is_active_output":false,"name":"UV Map.001","outputs":[[0.0,0.0,0.0]],"type":"UVMAP_BL","uvLayer":"TEXCOORD_0"},{"inputs":[[0.0,0.0,0.0],[0.0,0.0,0.0],[0.0,0.0,0.0],[1.0,1.0,1.0]],"is_active_output":false,"name":"Mapping.002","outputs":[[0.0,0.0,0.0]],"type":"MAPPING_BL","vectorType":"POINT"},{"inputs":[],"is_active_output":false,"name":"UV Map.002","outputs":[[0.0,0.0,0.0]],"type":"UVMAP_BL","uvLayer":"TEXCOORD_0"},{"inputs":[[0.0,0.0,0.0]],"is_active_output":false,"name":"Image Texture.003","outputs":[[0.0,0.0,0.0,0.0],0.0],"projection":"FLAT","projectionBlend":0.0,"texture":5,"type":"TEX_IMAGE_BL"},{"inputs":[1.0,[0.5,0.5,1.0,1.0]],"is_active_output":false,"name":"Normal Map","outputs":[[0.0,0.0,0.0]],"type":"NORMAL_MAP_BL","uvLayer":"TEXCOORD_0"}]},"useCastShadows":true}},"name":"mghead_leg"},{"extensions":{"S8S_v3d_material_data":{"nodeGraph":{"edges":[{"fromNode":0,"fromOutput":0,"toInput":0,"toNode":1},{"fromNode":4,"fromOutput":0,"toInput":1,"toNode":2},{"fromNode":3,"fromOutput":0,"toInput":0,"toNode":2},{"fromNode":2,"fromOutput":0,"toInput":0,"toNode":0}],"nodes":[{"inputs":[[0.05087608844041824,0.05087608844041824,0.05087608844041824,1.0],1.0],"is_active_output":false,"name":"Background","outputs":[[0,0,0,0]],"type":"BACKGROUND_BL"},{"inputs":[[0,0,0,0],[0,0,0,0]],"is_active_output":true,"name":"World Output","outputs":[],"type":"OUTPUT_WORLD_BL"},{"blendType":"MIX","inputs":[0.5,[0.5,0.5,0.5,1.0],[0.05126946419477463,0.05126946419477463,0.05126946419477463,1.0]],"is_active_output":false,"name":"Mix","outputs":[[0.0,0.0,0.0,0.0]],"type":"MIX_RGB_BL","useClamp":false},{"inputs":[],"is_active_output":false,"name":"Light Path","outputs":[0.0,0.0,0.0,0.0,0.0,0.0,0.0,0.0,0.0,0.0,0.0,0.0,0.0],"type":"LIGHT_PATH_BL"},{"inputs":[[0.0,0.0,0.0]],"is_active_output":false,"name":"Environment Texture","outputs":[[0.0,0.0,0.0,0.0]],"projection":"EQUIRECTANGULAR","texture":6,"type":"TEX_ENVIRONMENT_BL"}]},"useCastShadows":true}},"name":"Verge3D_Environment_World"}],"meshes":[{"extensions":{"S8S_v3d_mesh_data":{"colorLayers":{},"uvLayers":{"TEXCOORD_0":"TEXCOORD_0","TEXCOORD_1":"TEXCOORD_1","TEXCOORD_2":"TEXCOORD_2"}}},"name":"low.002","primitives":[{"attributes":{"NORMAL":2,"POSITION":1,"TANGENT":3,"TEXCOORD_0":4,"TEXCOORD_1":5,"TEXCOORD_2":6},"indices":0,"material":1,"mode":4}]},{"extensions":{"S8S_v3d_mesh_data":{"colorLayers":{},"uvLayers":{"TEXCOORD_0":"TEXCOORD_0","TEXCOORD_1":"TEXCOORD_1","TEXCOORD_2":"TEXCOORD_2"}}},"name":"low.003","primitives":[{"attributes":{"NORMAL":9,"POSITION":8,"TANGENT":10,"TEXCOORD_0":11,"TEXCOORD_1":12,"TEXCOORD_2":13},"indices":7,"material":1,"mode":4}]},{"extensions":{"S8S_v3d_mesh_data":{"colorLayers":{},"uvLayers":{"TEXCOORD_0":"TEXCOORD_0","TEXCOORD_1":"TEXCOORD_1","TEXCOORD_2":"TEXCOORD_2"}}},"name":"low2.001","primitives":[{"attributes":{"NORMAL":16,"POSITION":15,"TANGENT":17,"TEXCOORD_0":18,"TEXCOORD_1":19,"TEXCOORD_2":20},"indices":14,"material":0,"mode":4}]}],"nodes":[{"extensions":{"S8S_v3d_node_data":{"frustumCulling":true,"groupNames":["Machinegun-head - model from Dead Cyborg game"],"hidden":false,"renderOrder":0}},"name":"Sun.003"},{"children":[0],"extensions":{"S8S_v3d_node_data":{"frustumCulling":true,"groupNames":["Machinegun-head - model from Dead Cyborg game"],"hidden":false,"renderOrder":0}},"name":"Sun.002","rotation":[-0.16703474521636963,0.12018624693155289,-0.15663357079029083,0.9659817814826965],"scale":[0.9999976754188538,1.0000009536743164,0.9999988675117493],"translation":[6.851920127868652,17.392860412597656,-5.155280113220215]},{"extensions":{"S8S_v3d_node_data":{"frustumCulling":true,"groupNames":["Machinegun-head - model from Dead Cyborg game"],"hidden":false,"renderOrder":0}},"name":"low.002","rotation":[0.029912209138274193,0.0,-0.0,0.9995526075363159],"translation":[0.0,6.512996196746826,-0.0]},{"children":[9],"extensions":{"S8S_v3d_node_data":{"frustumCulling":true,"groupNames":["Machinegun-head - model from Dead Cyborg game"],"hidden":false,"renderOrder":0}},"name":"Sun","rotation":[0.2711581885814667,-0.06391522288322449,0.2203374058008194,0.9347938299179077],"scale":[0.9999990463256836,1.0000003576278687,1.0000033378601074],"translation":[0.0,18.231130599975586,10.136329650878906]},{"extensions":{"S8S_v3d_node_data":{"frustumCulling":true,"groupNames":["Machinegun-head - model from Dead Cyborg game"],"hidden":false,"renderOrder":0}},"name":"low.003","rotation":[0.029912209138274193,0.0,-0.0,0.9995526075363159],"translation":[0.0,6.512996196746826,-0.0]},{"extensions":{"S8S_v3d_node_data":{"frustumCulling":true,"groupNames":["Machinegun-head - model from Dead Cyborg game"],"hidden":false,"renderOrder":0}},"name":"low2.001","rotation":[0.029912209138274193,0.0,-0.0,0.9995526075363159],"translation":[0.0,6.512996196746826,-0.0]},{"extensions":{"S8S_v3d_node_data":{"frustumCulling":true,"groupNames":["Machinegun-head - model from Dead Cyborg game"],"hidden":false,"renderOrder":0,"useShadows":true}},"mesh":0,"name":"low.002_0","rotation":[0.7279415130615234,0.0,-0.0,0.6856392621994019],"translation":[0.0,6.512996196746826,-0.0]},{"extensions":{"S8S_v3d_node_data":{"frustumCulling":true,"groupNames":["Machinegun-head - model from Dead Cyborg game"],"hidden":false,"renderOrder":0}},"name":"Sun.005"},{"children":[3,1,11],"extensions":{"S8S_v3d_node_data":{"frustumCulling":true,"groupNames":["Machinegun-head - model from Dead Cyborg game"],"hidden":false,"renderOrder":0}},"name":"Machinegun-head - model from Dead Cyborg game","rotation":[0.7279415130615234,0.0,-0.0,0.6856392621994019],"scale":[1.0,1.000000238418579,1.000000238418579],"translation":[0.0,6.512996196746826,-0.0]},{"extensions":{"S8S_v3d_node_data":{"frustumCulling":true,"groupNames":["Machinegun-head - model from Dead Cyborg game"],"hidden":false,"renderOrder":0}},"name":"Sun.001"},{"extensions":{"S8S_v3d_node_data":{"frustumCulling":true,"groupNames":["Machinegun-head - model from Dead Cyborg game"],"hidden":false,"renderOrder":0,"useShadows":true}},"mesh":2,"name":"low2.001_0","rotation":[0.7279415130615234,0.0,-0.0,0.6856392621994019],"translation":[0.0,6.512996196746826,-0.0]},{"children":[7],"extensions":{"S8S_v3d_node_data":{"frustumCulling":true,"groupNames":["Machinegun-head - model from Dead Cyborg game"],"hidden":false,"renderOrder":0}},"name":"Sun.004","rotation":[0.06239830702543259,0.1960921436548233,-0.9668893218040466,0.1509283483028412],"scale":[0.9999958872795105,1.0000003576278687,1.0000007152557373]},{"extensions":{"S8S_v3d_node_data":{"frustumCulling":true,"groupNames":["Machinegun-head - model from Dead Cyborg game"],"hidden":false,"renderOrder":0,"useShadows":true}},"mesh":1,"name":"low.003_0","rotation":[0.7279415130615234,0.0,-0.0,0.6856392621994019],"translation":[0.0,6.512996196746826,-0.0]},{"camera":0,"extensions":{"S8S_v3d_node_data":{"frustumCulling":true,"groupNames":["Collection 1"],"hidden":false,"renderOrder":0}},"name":"Camera","rotation":[-0.10197938978672028,0.4005590081214905,0.04491495341062546,0.9094698429107666],"scale":[1.0,1.0,1.0],"translation":[20.331941604614258,9.59142017364502,17.68523597717285]}],"samplers":[{}],"scene":0,"scenes":[{"extensions":{"S8S_v3d_scene_data":{"aaMethod":"AUTO","iblEnvironmentMode":"PMREM","physicallyCorrectLights":true,"pmremMaxTileSize":256,"shadowMap":{"esmDistanceScale":1.0,"renderReverseSided":false,"renderSingleSided":true,"type":"PCFPOISSON"},"useHDR":true,"worldMaterial":2}},"extras":{"animFrameRate":24,"coordSystem":"Z_UP_RIGHT"},"name":"Scene","nodes":[13,8,12,10,6,4,5,2]}],"textures":[{"extensions":{"S8S_v3d_texture_data":{"colorSpace":"srgb"}},"name":"mghead_body_baseColor.png","sampler":0,"source":0},{"extensions":{"S8S_v3d_texture_data":{"colorSpace":"non-color"}},"name":"mghead_body_metallicRoughness.png.001","sampler":0,"source":1},{"extensions":{"S8S_v3d_texture_data":{"colorSpace":"non-color"}},"name":"mghead_body_normal.png","sampler":0,"source":2},{"extensions":{"S8S_v3d_texture_data":{"colorSpace":"srgb"}},"name":"mghead_leg_baseColor.png","sampler":0,"source":3},{"extensions":{"S8S_v3d_texture_data":{"colorSpace":"non-color"}},"name":"mghead_leg_metallicRoughness.png.001","sampler":0,"source":4},{"extensions":{"S8S_v3d_texture_data":{"colorSpace":"non-color"}},"name":"mghead_leg_normal.png","sampler":0,"source":5},{"extensions":{"S8S_v3d_texture_data":{"colorSpace":"linear"}},"name":"environment.hdr","sampler":0,"source":6}]}
